<svg width="86" height="86" viewBox="0 0 86 86" fill="none" xmlns="http://www.w3.org/2000/svg">
<mask id="mask0_1_43" style="mask-type:luminance" maskUnits="userSpaceOnUse" x="0" y="0" width="86" height="86">
<path d="M86 0H0V86H86V0Z" fill="white"/>
</mask>
<g mask="url(#mask0_1_43)">
<path d="M86.0004 23.66V42.47C85.8504 43 85.6804 43.53 85.5104 44.05C85.5034 44.0584 85.4999 44.0691 85.5004 44.08C85.5004 44.09 85.5004 44.09 85.4904 44.1C83.3833 50.3649 79.8327 56.0466 75.1252 60.6863C70.4177 65.3261 64.6851 68.794 58.3904 70.81C57.3204 71.15 56.2404 71.45 55.1404 71.7C55.1275 71.7051 55.1141 71.7085 55.1004 71.71C51.9941 72.4223 48.8173 72.7812 45.6304 72.78H45.2004C50.3308 72.3992 55.2757 70.6993 59.556 67.8452C63.8362 64.9912 67.3065 61.0797 69.6304 56.49V56.48C71.5901 52.6203 72.6858 48.3801 72.8412 44.0542C72.9966 39.7283 72.2081 35.4204 70.5304 31.43C70.3104 30.4 70.0504 29.38 69.7504 28.38C69.6304 27.96 69.4904 27.53 69.3504 27.11C69.2704 26.85 69.1804 26.59 69.0904 26.34C68.9804 26.04 68.8804 25.73 68.7504 25.43C68.6704 25.22 68.5904 25 68.5004 24.78C68.3404 24.38 68.1704 23.97 68.0004 23.56C67.8004 23.11 67.6104 22.66 67.3904 22.22C67.2704 21.98 67.1604 21.75 67.0304 21.51C66.9304 21.28 66.8004 21.04 66.6804 20.81C66.5604 20.58 66.4304 20.33 66.2904 20.09C66.1104 19.73 65.9004 19.39 65.7004 19.05C65.4304 18.58 65.1404 18.12 64.8604 17.66C64.8304 17.65 64.8304 17.64 64.8204 17.61C64.5204 17.14 64.2104 16.67 63.8804 16.23C63.5704 15.77 63.2404 15.31 62.8904 14.87C62.5604 14.43 62.2204 13.98 61.8504 13.55C61.8195 13.5268 61.7953 13.4957 61.7804 13.46C61.4504 13.06 61.1204 12.67 60.7604 12.29C60.3904 11.87 60.0204 11.47 59.6204 11.07C59.2404 10.66 58.8504 10.27 58.4304 9.88C58.0604 9.52 57.6704 9.16003 57.2604 8.81003L57.2004 8.75003C56.9904 8.57003 56.7804 8.38002 56.5704 8.21002C56.3504 8.02002 56.1304 7.84001 55.9104 7.67001C55.4904 7.32001 55.0404 6.97001 54.5904 6.64001C54.3604 6.46001 54.1304 6.28002 53.8904 6.12002C53.6504 5.96002 53.4104 5.79002 53.1804 5.62002C53.0804 5.55002 52.9804 5.49001 52.8804 5.42001C52.4504 5.13001 52.0004 4.84003 51.5504 4.56003C51.0304 4.23003 50.5004 3.92002 49.9604 3.62002C49.7504 3.50002 49.5504 3.38003 49.3304 3.28003C49.1204 3.16003 48.9204 3.06001 48.7004 2.95001C48.4999 2.83476 48.2929 2.73126 48.0804 2.64001C47.6104 2.40001 47.1204 2.17001 46.6304 1.95001C46.4904 1.88001 46.3404 1.81003 46.1904 1.75003C45.8404 1.59003 45.4804 1.46003 45.1204 1.31003C45.054 1.27474 44.9835 1.24785 44.9104 1.23001C44.6604 1.12001 44.4104 1.02002 44.1504 0.930022C43.9104 0.840022 43.6704 0.750012 43.4104 0.670012L43.3904 0.660002L43.3804 0.650023C43.1404 0.560023 42.8904 0.480023 42.6304 0.400023C42.2104 0.250023 41.7804 0.130029 41.3604 2.89907e-05H62.3304C65.4393 -0.00484039 68.5186 0.603744 71.392 1.79092C74.2653 2.9781 76.8761 4.72052 79.0749 6.91839C81.2737 9.11627 83.0172 11.7264 84.2056 14.5992C85.394 17.472 86.0039 20.5511 86.0004 23.66Z" fill="url(#paint0_linear_1_43)"/>
<path d="M86.0002 42.47V62.33C86.0055 65.4398 85.3968 68.5202 84.2092 71.3943C83.0215 74.2685 81.2782 76.8799 79.0792 79.0789C76.8801 81.2779 74.2687 83.0213 71.3945 84.2089C68.5204 85.3966 65.4401 86.0052 62.3302 86H37.0902C36.5502 85.72 36.0102 85.43 35.4802 85.12H35.4702C35.4602 85.11 35.4602 85.11 35.4502 85.11C26.1086 79.7227 19.1792 70.9688 16.0802 60.64C15.4943 58.6891 15.0564 56.6967 14.7702 54.68V54.6599C14.6302 53.7099 14.5202 52.74 14.4502 51.77C16.3278 57.8765 20.1139 63.2201 25.2525 67.016C30.3912 70.8119 36.6115 72.8602 43.0002 72.86C43.7502 72.86 44.4802 72.84 45.2002 72.78H45.6302C48.8171 72.7812 51.9939 72.4222 55.1002 71.71C55.1139 71.7084 55.1274 71.705 55.1402 71.7C56.2402 71.45 57.3202 71.15 58.3902 70.81C64.685 68.7939 70.4175 65.3261 75.125 60.6863C79.8325 56.0465 83.3831 50.3648 85.4902 44.0999C85.5002 44.0899 85.5002 44.09 85.5002 44.08C85.4997 44.0691 85.5033 44.0584 85.5102 44.05C85.6802 43.53 85.8482 43 86.0002 42.47Z" fill="url(#paint1_linear_1_43)"/>
<path d="M37.09 86.0001H23.67C17.3924 85.9998 11.372 83.5059 6.93307 79.067C2.49415 74.6281 0.000265196 68.6077 0 62.3301V41.9501C0.4 40.9201 0.840007 39.9001 1.32001 38.9101L1.34 38.8901C1.6 38.3501 1.87 37.8201 2.16 37.3001C2.33 36.9801 2.51002 36.6601 2.68002 36.3401C3.04002 35.7401 3.39002 35.1501 3.77002 34.5701C4.13002 34.0101 4.49001 33.4601 4.88 32.9101C5.27 32.3601 5.68 31.8301 6.09 31.3001C6.5 30.7701 6.93002 30.2601 7.36002 29.7601C7.79002 29.2601 8.24002 28.7601 8.71002 28.2701C9.18002 27.7801 9.64001 27.3101 10.13 26.8501C11.09 25.9301 12.1 25.0501 13.15 24.2201C14.18 23.4001 15.25 22.6401 16.35 21.9201C16.3788 21.9013 16.4089 21.8846 16.44 21.8701C16.99 21.5101 17.56 21.1701 18.12 20.8301C18.153 20.8195 18.1836 20.8025 18.21 20.7801L19.02 20.3301C19.72 19.9501 20.42 19.5901 21.14 19.2501C21.48 19.0801 21.83 18.9301 22.18 18.7701C22.61 18.5801 23.05 18.3901 23.48 18.2201C23.89 18.0601 24.31 17.9001 24.73 17.7401L24.75 17.7301C25.01 17.6401 25.28 17.5401 25.54 17.4501C25.91 17.3301 26.3 17.2001 26.68 17.0901C26.9456 16.9931 27.216 16.9097 27.49 16.8401C28.15 16.6501 28.82 16.4701 29.49 16.3201C29.4453 16.3591 29.3986 16.3959 29.35 16.4301C23.1184 19.6404 18.2125 24.9378 15.4891 31.3971C12.7657 37.8564 12.398 45.0672 14.45 51.7701C14.52 52.7401 14.63 53.7101 14.77 54.6601V54.6801C15.0562 56.6969 15.4941 58.6892 16.08 60.6401C19.1794 70.9671 26.1079 79.7194 35.448 85.1061C35.458 85.1061 35.458 85.1061 35.468 85.1161H35.478C36.01 85.4301 36.548 85.7201 37.09 86.0001Z" fill="url(#paint2_linear_1_43)"/>
<path d="M70.5 31.32C70.29 30.33 70.04 29.34 69.75 28.38C69.66 28.06 69.55 27.72 69.44 27.4C69.4 27.26 69.37 27.16 69.35 27.11C69.27 26.85 69.18 26.59 69.09 26.34C68.98 26.04 68.88 25.73 68.75 25.43C68.67 25.22 68.59 25 68.5 24.78C68.34 24.38 68.17 23.97 68 23.56C67.8 23.11 67.6 22.66 67.39 22.22C67.27 21.98 67.16 21.75 67.03 21.51C66.92 21.28 66.8 21.04 66.68 20.81C66.56 20.58 66.43 20.33 66.29 20.09C66.11 19.73 65.9 19.39 65.7 19.05C65.43 18.58 65.14 18.12 64.86 17.66C64.83 17.65 64.83 17.64 64.82 17.61C64.51 17.14 64.2 16.68 63.88 16.23C63.56 15.78 63.23 15.32 62.89 14.87C62.55 14.42 62.21 13.99 61.85 13.55C61.8191 13.5267 61.795 13.4957 61.78 13.46C61.44 13.06 61.11 12.67 60.76 12.29C60.38 11.87 60.01 11.47 59.62 11.07C59.23 10.67 58.85 10.27 58.43 9.87997C58.06 9.51997 57.67 9.16 57.26 8.81L57.2 8.75C56.99 8.57 56.78 8.37999 56.57 8.20999L55.91 7.66998C55.49 7.31998 55.04 6.96998 54.59 6.63998C54.36 6.46998 54.12 6.3 53.89 6.12C53.66 5.94 53.41 5.79 53.18 5.62C53.08 5.55 52.98 5.48998 52.88 5.41998C52.45 5.12998 52 4.84 51.55 4.56C51.03 4.23 50.5 3.92 49.96 3.62C49.75 3.5 49.55 3.38 49.33 3.28C49.12 3.16 48.92 3.05998 48.7 2.94998C48.4995 2.83473 48.2925 2.73123 48.08 2.63998C47.61 2.39998 47.13 2.16998 46.63 1.94998C46.49 1.87998 46.34 1.81 46.19 1.75C45.83 1.59 45.48 1.44 45.12 1.31C45.0536 1.27471 44.9831 1.24782 44.91 1.22998C44.66 1.11998 44.41 1.01999 44.15 0.929993C43.91 0.839993 43.67 0.749983 43.41 0.669983L43.39 0.659974L43.38 0.649994C43.14 0.559994 42.89 0.479994 42.63 0.399994C42.21 0.249994 41.78 0.13 41.36 3.38276e-07H23.66C20.5528 -0.000525107 17.4759 0.611087 14.6051 1.79993C11.7343 2.98877 9.12582 4.73154 6.92868 6.92868C4.73154 9.12582 2.9888 11.7343 1.79996 14.6051C0.611117 17.4759 -0.000525107 20.5527 3.38259e-07 23.66V41.95C0.41 40.9 0.860006 39.87 1.35001 38.87C1.92001 37.69 2.55 36.55 3.22 35.44C3.39 35.15 3.58002 34.86 3.77002 34.57C4.13002 34.01 4.49001 33.46 4.88001 32.91C5.27001 32.36 5.66 31.83 6.09 31.3C6.49 30.78 6.91002 30.26 7.36002 29.76C7.81002 29.26 8.24002 28.75 8.71002 28.27C9.16002 27.78 9.64001 27.3 10.13 26.85C11.0919 25.9231 12.0998 25.0454 13.15 24.22C14.1731 23.4052 15.2378 22.6442 16.34 21.94C16.3709 21.9133 16.4044 21.8899 16.44 21.87C16.97 21.52 17.5 21.19 18.05 20.87C19.7971 19.8632 21.6114 18.9778 23.48 18.22C23.89 18.06 24.31 17.9 24.73 17.74L24.75 17.73C25.01 17.64 25.28 17.54 25.54 17.45C25.5846 17.4413 25.6282 17.4279 25.67 17.41C26.01 17.29 26.35 17.19 26.68 17.09C26.9456 16.993 27.216 16.9096 27.49 16.84C28.15 16.65 28.82 16.47 29.49 16.32C29.44 16.35 29.4 16.4 29.35 16.43C29.46 16.37 29.56 16.33 29.66 16.27H29.69C33.8189 14.1937 38.3784 13.118 43 13.13C50.5539 13.1214 57.8286 15.9849 63.35 21.14C63.38 21.17 63.41 21.19 63.42 21.22C65.1291 22.8192 66.6429 24.615 67.93 26.57L67.94 26.58C68.16 26.92 68.38 27.26 68.59 27.61C69.3277 28.835 69.976 30.1117 70.53 31.43C70.5175 31.3941 70.5074 31.3573 70.5 31.32Z" fill="url(#paint3_linear_1_43)"/>
<g style="mix-blend-mode:multiply" opacity="0.08">
<path d="M86.0002 24.5701V42.4701C83.4703 51.2179 78.1639 58.9056 70.8817 64.3731C63.5994 69.8407 54.7365 72.7914 45.6302 72.7801H45.2002C50.3306 72.3992 55.2756 70.6994 59.5558 67.8453C63.836 64.9912 67.3063 61.0798 69.6302 56.4901C69.6402 56.4801 69.6302 56.4801 69.6302 56.4801C75.8302 49.3701 81.7802 39.1801 86.0002 24.5701Z" fill="black"/>
</g>
<g style="mix-blend-mode:multiply" opacity="0.08">
<path d="M48.7402 86H37.0902C30.7051 82.7057 25.2712 77.8293 21.3076 71.8366C17.3439 65.844 14.983 58.9351 14.4502 51.77C15.9785 56.7471 18.7851 61.2364 22.5902 64.79C29.2402 74.0836 38.2743 81.411 48.7402 86Z" fill="black"/>
</g>
<g style="mix-blend-mode:multiply" opacity="0.08">
<path d="M29.49 16.3201C29.4453 16.3591 29.3986 16.3959 29.35 16.4301C26.1911 18.0629 23.347 20.2434 20.95 22.8701C14.69 28.3001 6.9 37.0101 0 50.4901V41.9501C0.615925 40.3538 1.33753 38.8004 2.16 37.3001C2.33 36.9801 2.51002 36.6601 2.68002 36.3401C3.04002 35.7401 3.39002 35.1501 3.77002 34.5701C4.13002 34.0101 4.49001 33.4601 4.88 32.9101C5.27 32.3601 5.68 31.8301 6.09 31.3001C6.5 30.7701 6.93002 30.2601 7.36002 29.7601C7.79002 29.2601 8.24002 28.7601 8.71002 28.2701C9.18002 27.7801 9.64001 27.3101 10.13 26.8501C11.09 25.9301 12.1 25.0501 13.15 24.2201C14.18 23.4001 15.25 22.6401 16.35 21.9201C16.3788 21.9013 16.4089 21.8846 16.44 21.8701C16.99 21.5101 17.56 21.1701 18.12 20.8301C18.153 20.8195 18.1836 20.8025 18.21 20.7801L19.02 20.3301C19.72 19.9501 20.42 19.5901 21.14 19.2501C21.48 19.0801 21.83 18.9301 22.18 18.7701C22.61 18.5801 23.05 18.3901 23.48 18.2201C24.16 17.9501 24.85 17.6901 25.54 17.4501C25.91 17.3301 26.3 17.2001 26.68 17.0901C26.9456 16.9931 27.216 16.9097 27.49 16.8401C28.148 16.6501 28.82 16.4701 29.49 16.3201Z" fill="black"/>
</g>
<g style="mix-blend-mode:multiply" opacity="0.08">
<path d="M70.5299 31.43C69.9759 30.1117 69.3276 28.835 68.5899 27.61C68.4182 27.2403 68.1997 26.8941 67.9399 26.58L67.9299 26.57C66.6428 24.615 65.129 22.8192 63.4199 21.22C63.4099 21.19 63.3799 21.17 63.3499 21.14C56.7999 14.24 44.8099 5.45 23.6699 0H41.3599C41.7799 0.13 42.2099 0.249994 42.6299 0.399994C42.8899 0.479994 43.1399 0.559994 43.3799 0.649994C43.3899 0.649994 43.3999 0.669983 43.4099 0.669983C43.6699 0.749983 43.9099 0.839993 44.1499 0.929993C44.4099 1.01999 44.6599 1.11998 44.9099 1.22998C44.983 1.24782 45.0535 1.27471 45.1199 1.31C45.4799 1.44 45.8299 1.59 46.1899 1.75C46.3399 1.81 46.4899 1.87998 46.6299 1.94998C47.1299 2.16998 47.6099 2.39998 48.0799 2.63998C48.2924 2.73123 48.4994 2.83473 48.6999 2.94998C48.9199 3.05998 49.1199 3.16 49.3299 3.28C49.5499 3.38 49.7499 3.5 49.9599 3.62C50.4999 3.92 51.0299 4.23 51.5499 4.56C51.9999 4.84 52.4499 5.12998 52.8799 5.41998C52.9799 5.48998 53.0799 5.54999 53.1799 5.62C53.4099 5.79 53.6499 5.95 53.8899 6.12C54.1299 6.29 54.3599 6.46998 54.5899 6.63998C55.0399 6.96998 55.4899 7.31998 55.9099 7.66998L56.5699 8.20999C56.7799 8.37999 56.9899 8.57 57.1999 8.75L57.2599 8.81C57.6699 9.16 58.0599 9.51997 58.4299 9.87997C58.8499 10.27 59.2399 10.66 59.6199 11.07C59.9999 11.48 60.3799 11.87 60.7599 12.29C61.1099 12.67 61.4399 13.06 61.7799 13.46C61.7949 13.4957 61.819 13.5267 61.8499 13.55C62.2099 13.99 62.5499 14.43 62.8899 14.87C63.2299 15.31 63.5599 15.77 63.8799 16.23C64.1999 16.69 64.5099 17.14 64.8199 17.61C64.8299 17.64 64.8299 17.65 64.8599 17.66C65.1399 18.12 65.4299 18.58 65.6999 19.05C65.8999 19.39 66.1099 19.73 66.2899 20.09C66.4299 20.33 66.5499 20.57 66.6799 20.81C66.8099 21.05 66.9199 21.28 67.0299 21.51C67.1599 21.75 67.2699 21.98 67.3899 22.22C67.5999 22.66 67.7999 23.11 67.9999 23.56C68.1699 23.97 68.3399 24.38 68.4999 24.78C68.5899 25 68.6699 25.22 68.7499 25.43C68.8799 25.73 68.9799 26.04 69.0899 26.34C69.1799 26.59 69.2699 26.85 69.3499 27.11C69.3699 27.16 69.3999 27.26 69.4399 27.4C69.4999 27.62 69.5899 27.95 69.6899 28.32C69.9799 29.4 70.3699 30.85 70.4999 31.32C70.5073 31.3573 70.5174 31.3941 70.5299 31.43Z" fill="black"/>
</g>
<g style="mix-blend-mode:multiply" opacity="0.25">
<path d="M35.4695 85.1199C35.4595 85.1099 35.4595 85.1099 35.4495 85.1099C26.1079 79.7227 19.1785 70.9688 16.0795 60.6399C15.4936 58.689 15.0557 56.6967 14.7695 54.6799C14.8095 54.7899 14.9595 55.3499 15.2295 56.2399C15.5195 57.2399 15.9695 58.6599 16.5795 60.3099C16.9095 61.1399 17.2395 62.0299 17.6395 62.9499C17.8295 63.4199 18.0495 63.8899 18.2795 64.3699C18.5095 64.8499 18.7195 65.3299 18.9695 65.8199C19.4495 66.8099 20.0095 67.7899 20.5795 68.7799C21.1495 69.7699 21.7795 70.7599 22.4395 71.7099C23.0795 72.6799 23.7695 73.6199 24.4795 74.5199C25.1895 75.4199 25.9095 76.2899 26.6495 77.0999C27.3895 77.9099 28.0995 78.6799 28.8195 79.3899C29.5395 80.0999 30.2095 80.7399 30.8895 81.3399C31.5695 81.9399 32.1495 82.4599 32.7195 82.9299C33.2895 83.3999 33.7695 83.7799 34.1795 84.1099C34.9475 84.7059 35.4195 85.0699 35.4695 85.1199Z" fill="black"/>
</g>
<g style="mix-blend-mode:multiply" opacity="0.25">
<path d="M85.4896 44.1001C83.3826 50.365 79.832 56.0467 75.1245 60.6864C70.4169 65.3262 64.6844 68.7941 58.3896 70.8101C57.3196 71.1501 56.2396 71.4501 55.1396 71.7001C55.2796 71.6301 55.8797 71.3901 56.8297 71.0301C57.3597 70.8101 58.0897 70.6001 58.7797 70.2701C59.5197 69.9201 60.4097 69.5901 61.2797 69.1401C61.7197 68.9201 62.1797 68.6901 62.6597 68.4601C63.1297 68.2001 63.6096 67.9301 64.1096 67.6601C64.6246 67.393 65.1252 67.0993 65.6096 66.7801C66.1096 66.4601 66.6397 66.1701 67.1497 65.8201C67.6597 65.4701 68.1796 65.1201 68.6996 64.7601C69.2196 64.4001 69.7096 63.9901 70.2296 63.6101C70.7496 63.2301 71.2496 62.8101 71.7496 62.3901C72.2496 61.9701 72.7597 61.5601 73.2197 61.0901C73.6997 60.6401 74.1997 60.2201 74.6597 59.7601C75.1197 59.3001 75.5697 58.8201 76.0197 58.3601C76.8597 57.3801 77.7496 56.4701 78.4896 55.4801C79.2796 54.5401 79.9496 53.5501 80.6296 52.6401C80.9396 52.1701 81.2397 51.7001 81.5297 51.2601C81.8289 50.8381 82.1059 50.4009 82.3596 49.9501C82.8596 49.0901 83.3397 48.3101 83.7097 47.5901C84.0797 46.8701 84.4496 46.2501 84.6796 45.7101C85.0996 44.8401 85.3996 44.2701 85.4896 44.1001Z" fill="black"/>
</g>
<g style="mix-blend-mode:multiply" opacity="0.25">
<path d="M24.7299 17.74L22.6898 18.9C21.9998 19.27 21.3399 19.69 20.6699 20.09C19.9999 20.49 19.3499 20.92 18.6999 21.33L18.4499 21.49L18.2399 21.64L17.7498 21.98L17.2699 22.32L17.0298 22.49L16.9199 22.57C16.9299 22.56 16.9398 22.55 16.9398 22.54L16.8398 22.63L14.5598 24.38L13.9899 24.81L13.8398 24.91L13.7899 24.95H13.7798V24.96L13.7699 24.97L13.7399 24.99L13.4998 25.2L12.4299 26.16C12.0699 26.48 11.7199 26.8 11.3499 27.1L10.8098 27.57L10.3398 28.02L9.34985 29C9.02985 29.35 8.68986 29.69 8.35986 30.03L8.10986 30.29L8.05984 30.34L8.04987 30.35H8.03986L8.02985 30.37L8.00986 30.38L7.89987 30.52L7.41986 31.06L6.94986 31.59L6.72986 31.83L6.49985 32.1L5.56985 33.2L4.70987 34.3L4.25986 34.86L3.83984 35.42C3.55984 35.74 3.28987 36.19 3.01987 36.57C2.47987 37.35 1.91984 38.13 1.33984 38.89C1.59984 38.35 1.86985 37.82 2.15985 37.3C2.32985 36.98 2.50987 36.66 2.67987 36.34C3.03987 35.74 3.38987 35.15 3.76987 34.57C4.12987 34.01 4.48985 33.46 4.87985 32.91C5.26985 32.36 5.67984 31.83 6.08984 31.3C6.49984 30.77 6.92986 30.26 7.35986 29.76C7.78986 29.26 8.23987 28.76 8.70987 28.27C9.17987 27.78 9.63985 27.31 10.1299 26.85C11.0899 25.93 12.0999 25.05 13.1499 24.22C14.1799 23.4 15.2499 22.64 16.3499 21.92C16.3786 21.9012 16.4087 21.8845 16.4398 21.87C16.9899 21.51 17.5598 21.17 18.1198 20.83C18.1528 20.8194 18.1835 20.8024 18.2099 20.78L19.0199 20.33C19.7199 19.95 20.4199 19.59 21.1399 19.25C21.4799 19.08 21.8299 18.93 22.1799 18.77C22.6099 18.58 23.0499 18.39 23.4799 18.22C23.8899 18.06 24.3099 17.9 24.7299 17.74Z" fill="black"/>
</g>
<g style="mix-blend-mode:multiply" opacity="0.25">
<path d="M68.5002 24.78C68.1602 24.19 67.8402 23.62 67.4902 23.04L67.2302 22.61C67.1402 22.45 67.0802 22.34 66.9802 22.19L66.4502 21.34L65.9202 20.51L65.3602 19.67L64.3402 18.18L64.3202 18.16C64.2814 18.1211 64.2478 18.0775 64.2202 18.03C64.2192 18.0224 64.2156 18.0154 64.2102 18.01V18L63.4602 17.03C63.3302 16.86 63.2202 16.7 63.0802 16.54L62.6902 16.05L62.3002 15.55L62.1302 15.34L61.9302 15.09L61.1902 14.21L61.1702 14.19C61.1529 14.1675 61.1327 14.1473 61.1102 14.13C61.0783 14.0949 61.0483 14.0582 61.0202 14.02C60.6702 13.65 60.3402 13.26 60.0102 12.9L58.9102 11.75L57.7482 10.606L56.5982 9.53601L56.5682 9.50601V9.49603H56.5582C56.2682 9.23603 55.9782 8.976 55.6682 8.716L55.2182 8.35602L54.7582 7.97601L53.8382 7.216L53.3682 6.84601L52.9082 6.49603C52.7382 6.37603 52.6082 6.27601 52.4282 6.15601L51.9682 5.82602L51.4782 5.47601L51.2382 5.29602C51.2082 5.27602 51.1382 5.23601 51.1382 5.22601L51.0082 5.14603L50.0082 4.47601L49.0382 3.84601L49.0082 3.83603C48.6982 3.63603 48.3882 3.43603 48.0482 3.24603L47.0482 2.65601L46.0482 2.07602L45.0282 1.52603L44.9982 1.50601L44.8482 1.42603L44.8282 1.41602C44.3682 1.17602 43.8882 0.906016 43.4082 0.666016C43.6682 0.746016 43.9082 0.836025 44.1482 0.926025C44.4082 1.01603 44.6582 1.11601 44.9082 1.22601C44.9813 1.24385 45.0518 1.27074 45.1182 1.30603C45.4782 1.43603 45.8282 1.58603 46.1882 1.74603C46.3382 1.80603 46.4882 1.87601 46.6282 1.94601C47.1282 2.16601 47.6082 2.39602 48.0782 2.63602C48.2907 2.72726 48.4977 2.83077 48.6982 2.94601C48.9182 3.05601 49.1182 3.15603 49.3282 3.27603C49.5482 3.37603 49.7482 3.49603 49.9582 3.61603C50.4982 3.91603 51.0282 4.22603 51.5482 4.55603C51.9982 4.83603 52.4482 5.12602 52.8782 5.41602C52.9782 5.48602 53.0782 5.54603 53.1782 5.61603C53.4082 5.78603 53.6482 5.94603 53.8882 6.11603C54.1282 6.28603 54.3582 6.46602 54.5882 6.63602C55.0382 6.96602 55.4882 7.31602 55.9082 7.66602L56.5682 8.20602C56.7782 8.37602 56.9882 8.56603 57.1982 8.74603L57.2582 8.80603C57.6682 9.15603 58.0582 9.51601 58.4282 9.87601C58.8482 10.266 59.2382 10.656 59.6182 11.066C59.9982 11.476 60.3782 11.866 60.7582 12.286C61.1082 12.666 61.4382 13.056 61.7782 13.456C61.7931 13.4917 61.8173 13.5228 61.8482 13.546C62.2082 13.986 62.5482 14.426 62.8882 14.866C63.2282 15.306 63.5582 15.766 63.8782 16.226C64.1982 16.686 64.5082 17.136 64.8182 17.606C64.8282 17.636 64.8282 17.646 64.8582 17.656C65.1382 18.116 65.4282 18.576 65.6982 19.046C65.8982 19.386 66.1082 19.726 66.2882 20.086C66.4282 20.326 66.5482 20.566 66.6782 20.806C66.8082 21.046 66.9182 21.276 67.0282 21.506C67.1582 21.746 67.2682 21.976 67.3882 22.216C67.5982 22.656 67.7982 23.106 67.9982 23.556C68.1702 23.97 68.3402 24.38 68.5002 24.78Z" fill="black"/>
</g>
<g style="mix-blend-mode:screen" opacity="0.4">
<path d="M35.4476 85.106C35.3276 85.056 34.7876 84.836 33.9676 84.436C33.4876 84.206 32.9176 83.926 32.2776 83.556C31.6376 83.186 30.9176 82.746 30.1876 82.236C29.3708 81.6981 28.583 81.1173 27.8276 80.496C26.9742 79.8082 26.1564 79.0773 25.3776 78.306C24.533 77.4917 23.7351 76.6303 22.9876 75.726C22.2176 74.806 21.4776 73.836 20.7876 72.836C20.1076 71.816 19.4676 70.776 18.8976 69.726C18.5999 69.2106 18.3295 68.6798 18.0876 68.136C17.8276 67.606 17.5876 67.076 17.3676 66.556C16.9331 65.5481 16.5558 64.5164 16.2376 63.466C15.9076 62.476 15.6876 61.516 15.4776 60.636C15.1533 59.2113 14.9393 57.7637 14.8376 56.306C14.7676 55.376 14.7676 54.796 14.7676 54.676C15.0537 56.6928 15.4916 58.6851 16.0776 60.636C19.1765 70.9649 26.1059 79.7188 35.4476 85.106Z" fill="white"/>
</g>
<g style="mix-blend-mode:screen" opacity="0.4">
<path d="M85.4896 44.1001C85.4596 44.2601 85.3096 44.8901 85.0596 45.8601C84.9196 46.4401 84.6797 47.1201 84.4097 47.9001C84.1116 48.7775 83.7678 49.6387 83.3796 50.4801C82.9896 51.4301 82.4397 52.3901 81.8997 53.4301C80.6154 55.642 79.1254 57.7279 77.4496 59.6601C76.9796 60.1501 76.5196 60.6501 76.0496 61.1401C75.5796 61.6301 75.0596 62.1001 74.5696 62.5701C74.0796 63.0401 73.5296 63.4701 72.9996 63.9001C72.4696 64.3301 71.9496 64.7701 71.3896 65.1501C70.325 65.9358 69.2165 66.6603 68.0696 67.3201C67.004 67.9359 65.9057 68.4934 64.7797 68.9901C64.2297 69.2201 63.7197 69.4701 63.2097 69.6701C62.6797 69.8501 62.1796 70.0301 61.6896 70.2001C60.8205 70.509 59.9361 70.7727 59.0397 70.9901C58.3448 71.1699 57.6403 71.3101 56.9296 71.4101C55.9296 71.5801 55.2996 71.6801 55.1396 71.7001C56.2396 71.4501 57.3196 71.1501 58.3896 70.8101C64.6844 68.7941 70.4169 65.3262 75.1245 60.6864C79.832 56.0467 83.3826 50.365 85.4896 44.1001Z" fill="white"/>
</g>
<g style="mix-blend-mode:screen" opacity="0.4">
<path d="M13.7402 24.99C13.7502 24.97 13.7702 24.97 13.7702 24.96V24.97L13.7402 24.99Z" fill="white"/>
</g>
<g style="mix-blend-mode:screen" opacity="0.4">
<path d="M24.7303 17.74C24.3103 17.9 23.8903 18.06 23.4803 18.22C21.6117 18.9778 19.7974 19.8632 18.0503 20.87C17.5003 21.19 16.9703 21.52 16.4403 21.87C16.4047 21.8899 16.3712 21.9133 16.3403 21.94C15.2381 22.6442 14.1734 23.4052 13.1503 24.22C12.1001 25.0454 11.0922 25.9231 10.1303 26.85C9.64031 27.3 9.16033 27.78 8.71033 28.27C8.24033 28.75 7.80032 29.25 7.36032 29.76C6.92032 30.27 6.4903 30.78 6.0903 31.3C5.6603 31.83 5.26031 32.37 4.88031 32.91C4.50031 33.45 4.13032 34.01 3.77032 34.57C3.58032 34.86 3.39031 35.15 3.22031 35.44C2.55031 36.55 1.92031 37.69 1.35031 38.87C1.34031 38.88 1.33031 38.9 1.32031 38.91C1.65031 38 2.0003 37.1 2.3703 36.22C2.5803 35.77 2.71031 35.35 2.97031 34.88L3.32031 34.22L3.67032 33.6C3.91032 33.16 4.11031 32.79 4.41031 32.32L5.21033 31.13L5.41031 30.83L5.64032 30.51L6.52032 29.37L6.63031 29.23L6.77032 29.06L7.00031 28.78C7.31031 28.42 7.61033 28.05 7.93033 27.69L8.96033 26.64L9.21033 26.38L9.40033 26.19L9.52032 26.08L10.0503 25.6C10.4003 25.28 10.7703 24.97 11.1403 24.66L12.2303 23.73L12.5003 23.5L12.6003 23.42L12.6403 23.4L12.7103 23.34L12.8603 23.24L13.4503 22.83L15.8403 21.25L15.7403 21.34C15.827 21.2645 15.9208 21.1975 16.0203 21.14L16.1403 21.06L16.4003 20.92L16.9203 20.64L17.4403 20.36L17.7203 20.21L17.9903 20.07C18.7103 19.71 19.4403 19.41 20.1803 19.11C20.9203 18.81 21.6803 18.56 22.4403 18.31C23.1903 18.08 23.9703 17.9 24.7303 17.74Z" fill="white"/>
</g>
<g style="mix-blend-mode:screen" opacity="0.4">
<path d="M60.8701 13.6899L61.0701 14.0699L61.0201 14.0199C60.951 13.9197 60.9001 13.808 60.8701 13.6899Z" fill="white"/>
</g>
<g style="mix-blend-mode:screen" opacity="0.4">
<path d="M64.1299 17.8401L64.1699 17.9401C64.1533 17.9082 64.1399 17.8747 64.1299 17.8401Z" fill="white"/>
</g>
<g style="mix-blend-mode:screen" opacity="0.4">
<path d="M64.2305 18.03L64.6305 18.35C64.5773 18.3342 64.5267 18.3107 64.4805 18.28C64.4286 18.2546 64.3814 18.2208 64.3405 18.18L64.3205 18.16L64.2305 18.03Z" fill="white"/>
</g>
<g style="mix-blend-mode:screen" opacity="0.4">
<path d="M68.5001 24.7799C68.3401 24.3799 68.1701 23.9699 68.0001 23.5599C67.8001 23.1099 67.6101 22.6599 67.3901 22.2199C67.2701 21.9799 67.1602 21.7499 67.0302 21.5099C66.9302 21.2799 66.8001 21.0399 66.6801 20.8099C66.5601 20.5799 66.4302 20.3299 66.2902 20.0899C66.1102 19.7299 65.9001 19.3899 65.7001 19.0499C65.4301 18.5799 65.1401 18.1199 64.8601 17.6599C64.8301 17.6499 64.8301 17.6399 64.8201 17.6099C64.5201 17.1399 64.2101 16.6699 63.8801 16.2299C63.5701 15.7699 63.2401 15.3099 62.8901 14.8699C62.5601 14.4299 62.2202 13.9799 61.8502 13.5499C61.8193 13.5267 61.7951 13.4956 61.7802 13.4599C61.4502 13.0599 61.1201 12.6699 60.7601 12.2899C60.3901 11.8699 60.0201 11.4699 59.6201 11.0699C59.2401 10.6599 58.8501 10.2699 58.4301 9.87991C58.0601 9.51991 57.6701 9.15994 57.2601 8.80994L57.2001 8.74994C56.9901 8.56994 56.7801 8.37993 56.5701 8.20993C56.3501 8.01993 56.1302 7.83992 55.9102 7.66992C55.4902 7.31992 55.0401 6.96992 54.5901 6.63992C54.3601 6.45992 54.1301 6.27993 53.8901 6.11993C53.6501 5.95993 53.4101 5.78993 53.1801 5.61993C53.0801 5.54993 52.9801 5.48992 52.8801 5.41992C52.4501 5.12992 52.0001 4.83994 51.5501 4.55994C51.0301 4.22994 50.5001 3.91993 49.9601 3.61993C49.7501 3.49993 49.5501 3.37994 49.3301 3.27994C49.1201 3.15994 48.9201 3.05992 48.7001 2.94992C48.4996 2.83467 48.2926 2.73117 48.0801 2.63992C47.6101 2.39992 47.1201 2.16992 46.6301 1.94992C46.4901 1.87992 46.3401 1.80994 46.1901 1.74994C45.8401 1.58994 45.4801 1.45994 45.1201 1.30994C45.0537 1.27465 44.9832 1.24776 44.9102 1.22992C44.6602 1.11992 44.4101 1.01993 44.1501 0.929932C43.9101 0.839932 43.6702 0.749922 43.4102 0.669922C43.9302 0.769922 44.4602 0.879938 44.9702 1.02994L45.2401 1.10992L45.2101 1.08994L45.7701 1.24994L46.3401 1.42993L47.4501 1.82993L47.9901 2.02994L48.5402 2.24994C48.8902 2.38994 49.2501 2.54993 49.6201 2.70993L50.1701 2.95993L50.7401 3.24994L51.8101 3.80994L51.9401 3.87991L52.1002 3.96994L52.3601 4.11993L52.8801 4.41992L53.4201 4.74994C53.5801 4.83994 53.7701 4.96993 53.9401 5.07993L54.4601 5.41992L54.9501 5.75992L55.9301 6.47992L56.4102 6.83994L56.9001 7.22992C57.2101 7.46992 57.5201 7.73994 57.8401 7.99994L57.8601 8.01993L57.8901 8.05994L57.9501 8.11993L57.9201 8.07993L59.1602 9.19992L60.3001 10.3599L61.4201 11.5799C61.7901 12.0099 62.1401 12.4199 62.4901 12.8499L62.5101 12.8899L62.6901 13.2299C62.6601 13.1261 62.6128 13.028 62.5501 12.9399L62.5801 12.9699L63.3301 13.9799L63.5101 14.2399L63.7202 14.5199L64.0701 15.0399L64.4201 15.5699C64.5401 15.7399 64.6601 15.9399 64.7601 16.1099L65.4301 17.2099L65.4501 17.2499C65.3858 17.1584 65.3043 17.0803 65.2101 17.0199C65.1401 16.9899 65.1101 16.9799 65.0901 16.9699L65.4501 17.2499L65.4601 17.2699L65.4901 17.2899L65.9601 18.1699L66.1801 18.6199C66.2801 18.8099 66.3402 18.9299 66.4102 19.0899L66.8401 19.9899L67.0402 20.4499L67.2401 20.9399L67.6101 21.8699C67.6701 22.0199 67.7402 22.2099 67.7902 22.3599L67.9401 22.8299C68.0401 23.1499 68.1701 23.4799 68.2401 23.7999L68.5001 24.7799Z" fill="white"/>
</g>
</g>
<defs>
<linearGradient id="paint0_linear_1_43" x1="63.6804" y1="71.9794" x2="63.6804" y2="8.29692" gradientUnits="userSpaceOnUse">
<stop stop-color="#F80300"/>
<stop offset="1" stop-color="#FCC400"/>
</linearGradient>
<linearGradient id="paint1_linear_1_43" x1="16.8113" y1="64.235" x2="83.6391" y2="64.235" gradientUnits="userSpaceOnUse">
<stop stop-color="#F80300"/>
<stop offset="1" stop-color="#FCC400"/>
</linearGradient>
<linearGradient id="paint2_linear_1_43" x1="18.545" y1="20.9886" x2="18.545" y2="85.0943" gradientUnits="userSpaceOnUse">
<stop stop-color="#F80300"/>
<stop offset="1" stop-color="#FCC400"/>
</linearGradient>
<linearGradient id="paint3_linear_1_43" x1="68.9078" y1="20.975" x2="3.5265" y2="20.975" gradientUnits="userSpaceOnUse">
<stop stop-color="#F80300"/>
<stop offset="1" stop-color="#FCC400"/>
</linearGradient>
</defs>
</svg>
