<svg width="432" height="423" viewBox="0 0 432 423" fill="none" xmlns="http://www.w3.org/2000/svg">
<path d="M404 97L140 88.5H48L22.5 105.5L33.5 157V179L40.5 214.5V237.5L12 246V287L22.5 319.5L192 373L388 319.5L380.5 296L388 265.5V246L404 237.5V194.5L396.5 157V124L404 97Z" fill="#FDFDFD"/>
<path d="M274 45.7C271.5 45.9 268.6 46.5 267.5 47C266.4 47.5 258.3 48.6 249.5 49.5C240.7 50.4 232.6 51.5 231.5 52C230.4 52.5 222.1 53.6 213 54.6C203.9 55.5 196.1 56.6 195.5 57C195 57.4 186.6 58.5 177 59.5C167.4 60.5 159.3 61.6 159 62C158.7 62.3 150.6 63.6 141 64.8C105.7 69.1 96.5 70.4 96 71C95.7 71.4 87.3 72.5 77.3 73.5C67.2 74.5 59 75.7 59 76.2C59 76.6 57.3 77 55.3 77C49.8 77.1 38.6 79.6 38.2 80.9C38 81.5 37.3 82 36.6 82C35 82 29.2 87.7 28.5 90.1C28.1 91.1 27.5 92 27 92C26.5 92 25.5 93.9 24.8 96.2C24.2 98.6 23.1 100.8 22.5 101.2C21 102.3 21.1 138.3 22.7 140.1C23.3 140.9 24.4 143.8 25.1 146.5C25.8 149.3 27 152.1 27.7 152.8C28.4 153.5 29 154.7 29 155.4C29 156.1 29.9 157.5 31 158.5C34.8 162 33.6 163.5 25.5 165.4C21.3 166.4 17.3 167.8 16.5 168.7C14.3 170.9 14.8 178 17.1 178C17.6 178 18.9 178.9 20 180C21.1 181.1 22.9 182 24 182C25.1 182 26 182.4 26 183C26 183.5 26.6 184 27.3 184C29.5 184 33.8 188.8 35.1 192.7C35.7 194.8 36.7 196.8 37.3 197.1C37.8 197.5 38.5 203.7 38.8 210.9C39.2 222.6 39.1 224 37.6 224C36.7 224 36 224.4 36 224.9C36 225.4 32.6 226.6 28.5 227.6C24.4 228.6 21 229.7 21 230.1C21 230.6 19.1 231.4 16.8 232.1C11.5 233.5 8.8 236.2 9.2 239.7C9.5 242 10.2 242.6 14.5 243.6C17.3 244.2 18.9 244.8 18.3 244.9C17.6 244.9 16.3 246.5 15.4 248.2C14.5 250 13.4 251.7 12.9 252C12.5 252.3 11.4 255.2 10.5 258.5C7.7 269.4 9.1 302.9 12.5 306.4C13.2 307.1 14.1 309 14.4 310.7C14.8 312.4 15.9 314.6 16.9 315.7C17.9 316.7 19.3 318.6 19.9 319.8C20.5 321 21.7 322 22.5 322C23.3 322 24 322.4 24 322.9C24 324 29.6 327 31.7 327C32.4 327 33 327.4 33 327.9C33 328.4 35.5 329.4 38.5 330.1C41.5 330.8 44 331.6 44 332C44 332.4 46.8 333.3 50.2 334C53.7 334.6 58.3 336 60.5 337C62.7 338 66.1 339.1 68 339.5C69.9 339.9 73.3 341 75.5 342C77.7 343 82.1 344.4 85.3 345C88.4 345.7 91 346.6 91 347C91 347.4 94.6 348.5 99 349.5C103.4 350.5 107 351.7 107 352.1C107 352.5 108.7 353.1 110.8 353.5C112.8 353.9 116.3 355 118.5 356C120.7 357 125.1 358.4 128.3 359C131.4 359.7 134 360.6 134 361C134 361.3 137.3 362.4 141.3 363.5C145.2 364.5 149 365.6 149.5 366C150.1 366.4 153.7 367.5 157.5 368.5C161.4 369.5 164.7 370.6 165 371C165.3 371.3 168.7 372.5 172.5 373.5C176.4 374.5 179.8 375.8 180.2 376.4C181 377.6 191.7 377.5 193.3 376.2C194 375.7 198.9 374.4 204.3 373.4C209.6 372.4 214 371.3 214 371C214 370.6 218.6 369.5 224.3 368.5C229.9 367.5 234.7 366.3 235 366C235.3 365.7 240.1 364.5 245.8 363.5C251.4 362.5 256 361.4 256 361C256 360.7 260.4 359.6 265.8 358.6C271.1 357.6 276 356.4 276.5 355.9C277.1 355.5 280.7 354.6 284.5 353.9C288.4 353.3 291.7 352.4 292 352C292.3 351.6 296.6 350.6 301.5 349.6C306.5 348.7 311.4 347.5 312.5 347C313.6 346.6 318.8 345.4 324 344.4C329.2 343.5 333.7 342.4 334 342C334.3 341.6 338.8 340.5 344 339.5C349.2 338.5 354 337.4 354.5 337C355.1 336.6 359.8 335.5 365 334.5C370.2 333.6 375 332.5 375.5 332C376.1 331.6 379.8 330.7 383.8 330C387.7 329.3 391 328.4 391 328C391 327.6 395.7 326.5 401.5 325.4C407.3 324.4 412 323.3 412 322.9C412 322.5 413.8 322 416.1 321.6C419.7 321 420.1 320.7 419.8 318.4C419.6 316.8 418.4 315.2 416.5 314.2C414.9 313.3 413.4 312.2 413.2 311.8C413 311.5 410.3 310.4 407.2 309.4C404.1 308.4 401.3 307.3 401 307C400.7 306.6 398.1 305.7 395.3 305L390 303.8V293.3C390 282.8 392.3 269 394.1 269C394.6 269 395.5 268 396.1 266.7C397.1 264.6 399.6 263 404.8 261.5C406 261.2 407 260.4 407 259.9C407 259.4 407.7 259 408.5 259C411 259 413.3 254.4 412.6 250.7C412.1 247.8 411.4 247.3 407.5 246.2L403 245L406.8 241.3C408.8 239.2 411.2 236.3 411.9 234.7C412.7 233.2 413.7 232 414 232C414.4 232 415.3 229.2 416 225.7C416.7 222.3 417.8 219.2 418.4 218.8C419.9 217.8 419.9 181.2 418.5 180.2C417.9 179.8 416.8 177.6 416.1 175.3C415.3 173 414.1 170.9 413.4 170.6C412.6 170.3 412 169.4 412 168.7C412 167.7 414.4 166.9 419.5 166C423.6 165.3 427 164.4 427 163.9C427 163.5 428 163 429.3 162.8C431 162.6 431.5 161.8 431.5 159.5C431.5 157.2 430.8 156.2 428.5 155.1C426.9 154.3 425.3 153.4 425 152.9C424.7 152.5 421.8 151.4 418.5 150.5C415.2 149.5 412.3 148.4 412 148C411.7 147.7 409.5 146.9 407 146.4L402.5 145.5V132.2C402.5 124.5 402.9 118.6 403.5 118.2C404.1 117.8 405.1 115.7 405.9 113.5C407.5 109 411.7 104 414 103.9C414.8 103.9 417.8 102.6 420.5 101.1C424.4 98.9 425.6 97.7 425.8 95.5C426.5 89.9 425.4 88.3 420.5 87.6C418 87.2 416 86.5 416 86.1C416 85.7 413.1 84.8 409.6 84.1C406.1 83.4 402.1 82.2 400.7 81.5C399.3 80.8 394.7 79.4 390.3 78.4C386 77.4 382.3 76.3 382 75.9C381.7 75.5 378 74.5 373.8 73.5C369.5 72.6 366 71.5 366 71.1C366 70.7 363.1 69.8 359.5 69.1C355.9 68.4 353 67.5 353 67C353 66.6 349.2 65.5 344.5 64.5C339.8 63.5 336 62.4 336 62.1C336 61.7 332.2 60.5 327.5 59.5C322.8 58.4 319 57.2 319 56.9C319 56.6 315.3 55.5 310.8 54.5C306.2 53.5 302.3 52.4 302 52C301.7 51.6 298.1 50.5 294 49.5C289.9 48.5 286.1 47.4 285.5 47C284 45.8 279 45.3 274 45.7ZM50 96.8C50 97.3 53.4 98.4 57.5 99.4C61.6 100.4 65 101.5 65 101.9C65 102.3 68.6 103.5 73 104.5C77.4 105.5 81 106.7 81 107.1C81 107.5 83.4 108.4 86.3 109C89.1 109.7 91.7 110.6 92 111C92.3 111.3 95.7 112.4 99.5 113.5C103.4 114.5 107 115.6 107.5 116C108.1 116.4 111.8 117.5 115.8 118.5C119.7 119.4 123 120.5 123 120.9C123 121.3 126.6 122.5 131 123.5C135.4 124.5 139 125.7 139 126.1C139 126.5 142.4 127.6 146.5 128.6C150.6 129.6 154 130.7 154 131C154 131.4 156.5 132.3 159.5 133C162.5 133.7 165 134.6 165 135C165 135.3 168.6 136.4 173 137.4C177.4 138.4 181.3 139.6 181.5 140C181.8 140.5 185.4 141.6 189.5 142.6C193.6 143.6 197 144.7 197 145.2C197 145.6 197.6 146 198.3 146C199.2 146 199.4 150.8 198.9 168.2C198.5 180.5 198.2 191.3 198.1 192.3C198 193.8 197.4 194 194.3 193.4C192.2 193 190.3 192.4 190 192C189.7 191.6 185.5 190.5 180.5 189.5C175.6 188.5 171.3 187.3 171 186.9C170.7 186.6 166.7 185.4 162 184.5C157.3 183.5 153.2 182.3 152.9 181.8C152.6 181.4 148.8 180.3 144.5 179.5C140.1 178.6 136.3 177.6 136 177.1C135.7 176.7 131.6 175.5 126.8 174.5C121.9 173.5 118 172.4 118 172C118 171.6 114.9 170.7 111 170C107.2 169.3 104 168.4 104 168.1C104 167.7 100.1 166.6 95.3 165.6C90.4 164.5 86.3 163.4 86 163C85.7 162.7 81.9 161.6 77.5 160.6C73.1 159.6 68.2 158.2 66.5 157.5C64.9 156.8 60.2 155.6 56.3 154.9C52.3 154.2 49 153.3 49 152.8C49 152.4 48.4 152 47.8 152C45.6 151.9 42.5 148.7 41 145C40.2 143.1 39.3 141.3 38.8 141C38.4 140.7 37.5 136.1 36.9 130.9C35.6 120.5 36.4 106.8 38.4 104.7C39.1 104.1 39.9 102.7 40.3 101.7C40.7 100.7 42.4 99.3 44 98.7C45.7 98.1 47 97.2 47 96.8C47 96.4 47.7 96 48.5 96C49.3 96 50 96.4 50 96.8ZM395 110.4C395 111.1 394.3 113.7 393.4 116.1C392.3 119.2 391.8 124.6 391.7 135L391.5 149.5L384 150.9C379.9 151.7 376.3 152.6 376 153C375.7 153.4 371.2 154.5 366 155.5C360.8 156.5 356.3 157.6 356 158C355.7 158.4 351.2 159.5 346 160.5C340.8 161.5 336.3 162.6 336 163C335.7 163.4 331.2 164.5 326 165.4C320.8 166.3 316.1 167.5 315.5 167.9C315 168.4 311.4 169.3 307.5 170C303.7 170.7 300.3 171.6 300 172C299.7 172.3 295.1 173.5 289.8 174.5C284.4 175.5 280 176.7 280 177C280 177.4 275.5 178.5 270 179.5C264.5 180.5 260 181.6 260 182C260 182.4 255.1 183.5 249 184.5C243 185.5 238 186.6 238 187C238 187.3 233.6 188.5 228.3 189.5C222.9 190.5 218.3 191.6 218 192C217.7 192.4 215.6 193.1 213.3 193.5L209 194.2L209.1 179.8C209.2 172 209.5 161.2 209.9 156L210.5 146.5L214.3 146.2C216.3 146 218 145.5 218 145.1C218 144.6 223.4 143.4 230 142.4C236.6 141.4 242 140.3 242 139.9C242 139.6 247.6 138.5 254.5 137.5C261.4 136.5 267 135.4 267 135C267 134.6 270.9 133.7 275.8 133C280.6 132.3 285 131.3 285.5 130.9C286.1 130.5 291.7 129.4 298 128.4C304.3 127.5 309.7 126.4 310 126C310.3 125.6 315.8 124.5 322.3 123.5C328.7 122.6 334 121.5 334 121.1C334 120.7 339.5 119.5 346.3 118.6C353 117.6 358.7 116.4 359 116.1C359.3 115.7 364.8 114.6 371.3 113.6C377.7 112.6 383 111.4 383 110.9C383 110.2 385.9 109.7 392.8 109.2C394.1 109.1 395 109.6 395 110.4ZM396.2 177C401.2 179.3 405 189 405 199.2C405 205.4 403.2 217 402.1 218.5C401.6 219 401 220.8 400.6 222.3C399.4 227.3 393.7 231.9 387.2 233.2C384.1 233.8 381.3 234.6 381 235C380.7 235.3 376.9 236.4 372.6 237.4C368.2 238.3 364.1 239.5 363.6 239.9C363 240.4 360.5 241.1 358 241.5C355.5 241.9 352.2 242.8 350.5 243.5C348.9 244.2 344.1 245.6 340 246.6C335.9 247.5 332.3 248.6 332 249C331.7 249.4 327.3 250.5 322.3 251.5C317.2 252.5 313 253.7 313 254C313 254.4 309.1 255.5 304.3 256.5C299.4 257.5 295.3 258.6 295 259C294.7 259.4 290.9 260.5 286.5 261.4C282.2 262.3 278.3 263.4 278 263.8C277.7 264.2 274.6 265.2 271 265.9C267.4 266.6 264.3 267.5 264 268C263.7 268.4 259.6 269.6 254.8 270.5C249.9 271.5 246 272.7 246 273.1C246 273.6 245.3 274 244.5 274C242.7 274 242.9 276.1 242.1 247.7L241.5 225L245 224C246.9 223.4 249.3 223 250.3 223C251.2 223 252 222.6 252 222.2C252 221.7 255.4 220.5 259.5 219.5C263.6 218.4 267 217.3 267 217C267 216.7 270.4 215.6 274.5 214.5C278.6 213.5 282 212.4 282 212C282 211.6 284.8 210.7 288.3 210C291.7 209.3 296.3 207.9 298.5 206.9C300.7 206 304.2 204.9 306.3 204.5C308.3 204.1 310 203.5 310 203.1C310 202.7 313.4 201.6 317.5 200.5C321.6 199.5 325 198.4 325 198C325 197.7 328.4 196.6 332.5 195.5C336.6 194.5 340 193.4 340 193C340 192.7 343.8 191.5 348.5 190.5C353.2 189.4 357 188.2 357 187.9C357 187.5 360.3 186.4 364.3 185.5C368.2 184.5 371.7 183.4 372 183C372.3 182.7 374.8 181.7 377.5 181C380.3 180.3 382.7 179.3 383 179C383.5 178.3 390.2 176.3 392.7 176.1C393.4 176 394.9 176.5 396.2 177ZM57.6 190.4C62.7 191.3 68 192 69.4 192C70.8 192 72 192.4 72 192.9C72 193.4 77.3 194.6 83.8 195.6C90.2 196.6 95.7 197.7 96 198.1C96.3 198.4 101.8 199.5 108.3 200.5C114.7 201.5 120 202.6 120 203C120 203.4 124.3 204.3 129.5 205.1C134.7 205.8 139 206.7 139 207C139 207.4 144.4 208.5 151 209.5C157.6 210.4 163 211.6 163 212C163 212.4 168.5 213.5 175.3 214.5C182 215.5 187.7 216.6 188 217C188.3 217.4 193.7 218.5 200 219.5C206.3 220.4 212 221.6 212.5 222C213.1 222.4 217.4 223.3 222.1 224L230.7 225.2L231.3 238.7C232.5 262.6 232.2 274 230.5 274C229.7 274 229 273.6 229 273.2C229 272.7 224.5 271.5 219 270.5C213.5 269.5 209 268.4 209 268C209 267.6 205.5 266.7 201.3 266C197 265.4 193.1 264.5 192.5 264C192 263.6 187.2 262.5 182 261.5C176.8 260.5 172.3 259.4 172 259C171.7 258.6 167.2 257.5 162 256.5C156.8 255.5 152.3 254.4 152 254C151.7 253.6 147.2 252.5 142 251.5C136.8 250.5 132.3 249.4 132 249C131.7 248.6 127.2 247.5 122 246.5C116.8 245.5 112.3 244.4 112 244C111.7 243.6 108.6 242.8 105 242.1C101.4 241.5 97.6 240.5 96.5 240C95.4 239.6 90.2 238.4 85 237.4C79.8 236.5 75.3 235.4 75 235C74.7 234.6 70.3 233.5 65.3 232.5C60.2 231.6 56 230.4 56 229.9C56 229.4 55 229 53.8 229C49.4 229 49.2 228.2 49.2 213.1C49.2 205 48.8 198.5 48.3 198.1C47.7 197.8 47 195.8 46.6 193.7C46.2 191.6 45.6 189.2 45.3 188.3C44.8 187.1 45.1 187 46.6 187.8C47.6 188.4 52.6 189.6 57.6 190.4ZM39 255.8C39 256.3 41.5 257.3 44.5 258C47.5 258.7 50 259.6 50 260C50 260.4 52.6 261.2 55.8 261.9C58.9 262.6 62.8 263.8 64.3 264.5C65.8 265.3 70.3 266.7 74.3 267.6C78.3 268.6 81.7 269.6 82 270C82.3 270.4 85.7 271.5 89.5 272.5C93.4 273.5 96.7 274.7 97 275C97.3 275.4 100.8 276.5 104.8 277.5C108.7 278.5 112 279.7 112 280.1C112 280.5 113.7 281.1 115.8 281.5C117.8 281.9 121.3 283 123.5 284C125.7 285 130.3 286.4 133.8 287C137.2 287.7 140 288.6 140 288.9C140 289.3 143.3 290.5 147.3 291.5C151.2 292.5 154.7 293.6 155 294C155.3 294.3 158.7 295.5 162.5 296.5C166.4 297.5 169.7 298.6 170 299C170.3 299.4 173.6 300.4 177.4 301.4C181.1 302.3 184.8 303.7 185.6 304.5C187.3 306.2 187.7 337 186 337C185.4 337 185 340.3 185 344.9V352.8L181.3 351.9C179.2 351.3 176.8 350.6 176 350.3C174.5 349.7 162.6 346.4 150 343.2C146.4 342.3 143.3 341.3 143 341C142.7 340.6 138.8 339.6 134.2 338.6C129.6 337.6 124.6 336.2 123.2 335.4C121.7 334.6 119.6 334 118.5 334C116 333.9 107.9 331.8 106.3 330.7C105.7 330.3 101.7 329.3 97.3 328.4C93 327.5 89.3 326.5 89 326.1C88.7 325.7 84.7 324.6 80 323.6C75.3 322.6 71.1 321.5 70.5 321C70 320.6 66.8 319.7 63.5 319C60.2 318.3 57.3 317.4 57 317.1C56.5 316.3 47.7 314.2 41.3 313.3C39.5 313 38 312.5 38 312.1C38 311.7 36.4 310.8 34.5 310.1C32.6 309.4 31 308.2 31 307.4C31 306.6 30.3 305.7 29.5 305.4C27.8 304.7 25 296.2 25 291.8C25 290.3 24.6 289 24 289C23.4 289 23 285 23 279C23 273 23.4 269 24 269C24.6 269 25 268.2 25 267.1C25 263.9 27.9 258 29.5 258C30.4 258 31.3 257.3 31.6 256.5C32.2 254.9 39 254.3 39 255.8ZM382 267.9C382 268.5 381.3 271.9 380.4 275.7C379.2 280.7 378.9 285.9 379.2 295.2L379.6 307.9L370.3 309.6C365.2 310.6 361 311.7 361 312C361 312.4 356.5 313.5 351 314.5C345.5 315.5 341 316.6 341 317C341 317.4 337.5 318.3 333.3 319C329 319.7 325.1 320.6 324.5 321.1C324 321.5 319.5 322.6 314.5 323.6C309.6 324.5 305.3 325.6 305 326C304.7 326.3 299.9 327.5 294.3 328.5C288.6 329.5 284 330.6 284 331C284 331.3 279.6 332.5 274.3 333.5C268.9 334.5 264.3 335.6 264 336C263.7 336.4 259.3 337.5 254.1 338.4C249 339.4 244 340.6 243.1 341C242.2 341.5 238.4 342.6 234.5 343.4C226.1 345.2 209.7 349.3 202 351.4C199 352.3 196.4 353 196.3 353C196.1 353 196 344.4 196 334C196 322 196.4 315 197 315C197.6 315 198 312.7 198 310C198 306.2 198.4 305 199.5 305C200.3 305 201 304.7 201 304.2C201 303.8 206.4 302.6 212.9 301.6C219.5 300.6 225 299.4 225.2 298.8C225.4 298.2 229.7 297.7 235 297.5C244.5 297.3 256 295.3 256 294C256 293 262.9 291.3 270.3 290.5C273.4 290.1 276 289.4 276 289C276 288.5 281.4 287.4 288 286.4C294.6 285.4 300 284.3 300 283.9C300 283.6 304.3 282.7 309.5 281.9C314.7 281.2 319 280.3 319 280C319 279.6 320.7 279 322.8 278.7C324.8 278.4 330.1 277.6 334.5 277C338.9 276.3 342.7 275.5 343 275.1C343.3 274.7 348.9 273.5 355.5 272.5C362.1 271.5 367.7 270.4 368 270C368.3 269.6 371.2 268.8 374.5 268.3C377.8 267.7 380.8 267.2 381.3 267.1C381.7 267.1 382 267.4 382 267.9Z" fill="black"/>
<circle cx="190.867" cy="301.633" r="9.73664" fill="#FDFDFD" stroke="black" stroke-width="7.17633"/>
<circle cx="237.133" cy="281.07" r="9.73664" fill="#FDFDFD" stroke="black" stroke-width="7.17633"/>
<circle cx="235.664" cy="223.055" r="9.73664" fill="#FDFDFD" stroke="black" stroke-width="7.17633"/>
<circle cx="418.523" cy="93.0704" r="9.73664" fill="#FDFDFD" stroke="black" stroke-width="7.17633"/>
<circle cx="43.2579" cy="90.1329" r="9.73664" fill="#FDFDFD" stroke="black" stroke-width="7.17633"/>
<circle cx="276.789" cy="49.7422" r="9.73664" fill="#FDFDFD" stroke="black" stroke-width="7.17633"/>
<circle cx="418.523" cy="159.898" r="9.73664" fill="#FDFDFD" stroke="black" stroke-width="7.17633"/>
<circle cx="405.305" cy="251.695" r="9.73664" fill="#FDFDFD" stroke="black" stroke-width="7.17633"/>
<circle cx="13.8828" cy="239.211" r="9.73664" fill="#FDFDFD" stroke="black" stroke-width="7.17633"/>
<circle cx="184.258" cy="371.398" r="9.73664" fill="#FDFDFD" stroke="black" stroke-width="7.17633"/>
<circle cx="411.18" cy="316.32" r="9.73664" fill="#FDFDFD" stroke="black" stroke-width="7.17633"/>
<circle cx="21.961" cy="313.383" r="9.73664" fill="#FDFDFD" stroke="black" stroke-width="7.17633"/>
<circle cx="15.3516" cy="172.383" r="9.73664" fill="#FDFDFD" stroke="black" stroke-width="7.17633"/>
<circle cx="204.086" cy="142.273" r="9.73664" fill="#FDFDFD" stroke="black" stroke-width="7.17633"/>
</svg>
